<mxfile host="www.draw.io" modified="2020-02-03T19:39:08.401Z" agent="Mozilla/5.0 (Macintosh; Intel Mac OS X 10_15_2) AppleWebKit/537.36 (KHTML, like Gecko) Chrome/79.0.3945.130 Safari/537.36" etag="3UabyAcNmT_spbPGFmIJ" version="12.6.4" type="github">
  <diagram id="l-QONBMP0DDUvviEroiV" name="Page-1">
    <mxGraphModel dx="578" dy="286" grid="1" gridSize="10" guides="1" tooltips="1" connect="1" arrows="1" fold="1" page="1" pageScale="1" pageWidth="827" pageHeight="583" math="0" shadow="0">
      <root>
        <mxCell id="0"/>
        <mxCell id="1" parent="0"/>
        <mxCell id="b9wL08kcFKdRMESmPfWV-2" value="ALU" style="shadow=0;dashed=0;align=center;html=1;strokeWidth=1;shape=mxgraph.electrical.abstract.mux2;" vertex="1" parent="1">
          <mxGeometry x="360" y="160" width="80" height="120" as="geometry"/>
        </mxCell>
      </root>
    </mxGraphModel>
  </diagram>
</mxfile>
